<?xml version="1.0" encoding="utf-8"?>
<!DOCTYPE svg PUBLIC "-//W3C//DTD SVG 20010904//EN" "http://www.w3.org/TR/2001/REC-SVG-20010904/DTD/svg10.dtd">
<svg xmlns="http://www.w3.org/2000/svg" xml:space="preserve" xmlns:xlink="http://www.w3.org/1999/xlink" width="330" height="330" viewBox="0 0 330 330">
<desc></desc>
<rect width="330" height="330" fill="#ffffff" cx="0" cy="0" />
<defs>
<rect id="p" width="10" height="10" />
</defs>
<g fill="#000000">
<use x="20" y="20" xlink:href="#p" />
<use x="30" y="20" xlink:href="#p" />
<use x="40" y="20" xlink:href="#p" />
<use x="50" y="20" xlink:href="#p" />
<use x="60" y="20" xlink:href="#p" />
<use x="70" y="20" xlink:href="#p" />
<use x="80" y="20" xlink:href="#p" />
<use x="120" y="20" xlink:href="#p" />
<use x="130" y="20" xlink:href="#p" />
<use x="140" y="20" xlink:href="#p" />
<use x="150" y="20" xlink:href="#p" />
<use x="170" y="20" xlink:href="#p" />
<use x="200" y="20" xlink:href="#p" />
<use x="210" y="20" xlink:href="#p" />
<use x="220" y="20" xlink:href="#p" />
<use x="240" y="20" xlink:href="#p" />
<use x="250" y="20" xlink:href="#p" />
<use x="260" y="20" xlink:href="#p" />
<use x="270" y="20" xlink:href="#p" />
<use x="280" y="20" xlink:href="#p" />
<use x="290" y="20" xlink:href="#p" />
<use x="300" y="20" xlink:href="#p" />
<use x="20" y="30" xlink:href="#p" />
<use x="80" y="30" xlink:href="#p" />
<use x="110" y="30" xlink:href="#p" />
<use x="140" y="30" xlink:href="#p" />
<use x="150" y="30" xlink:href="#p" />
<use x="160" y="30" xlink:href="#p" />
<use x="170" y="30" xlink:href="#p" />
<use x="180" y="30" xlink:href="#p" />
<use x="190" y="30" xlink:href="#p" />
<use x="240" y="30" xlink:href="#p" />
<use x="300" y="30" xlink:href="#p" />
<use x="20" y="40" xlink:href="#p" />
<use x="40" y="40" xlink:href="#p" />
<use x="50" y="40" xlink:href="#p" />
<use x="60" y="40" xlink:href="#p" />
<use x="80" y="40" xlink:href="#p" />
<use x="100" y="40" xlink:href="#p" />
<use x="140" y="40" xlink:href="#p" />
<use x="150" y="40" xlink:href="#p" />
<use x="170" y="40" xlink:href="#p" />
<use x="180" y="40" xlink:href="#p" />
<use x="210" y="40" xlink:href="#p" />
<use x="220" y="40" xlink:href="#p" />
<use x="240" y="40" xlink:href="#p" />
<use x="260" y="40" xlink:href="#p" />
<use x="270" y="40" xlink:href="#p" />
<use x="280" y="40" xlink:href="#p" />
<use x="300" y="40" xlink:href="#p" />
<use x="20" y="50" xlink:href="#p" />
<use x="40" y="50" xlink:href="#p" />
<use x="50" y="50" xlink:href="#p" />
<use x="60" y="50" xlink:href="#p" />
<use x="80" y="50" xlink:href="#p" />
<use x="100" y="50" xlink:href="#p" />
<use x="110" y="50" xlink:href="#p" />
<use x="160" y="50" xlink:href="#p" />
<use x="190" y="50" xlink:href="#p" />
<use x="200" y="50" xlink:href="#p" />
<use x="210" y="50" xlink:href="#p" />
<use x="240" y="50" xlink:href="#p" />
<use x="260" y="50" xlink:href="#p" />
<use x="270" y="50" xlink:href="#p" />
<use x="280" y="50" xlink:href="#p" />
<use x="300" y="50" xlink:href="#p" />
<use x="20" y="60" xlink:href="#p" />
<use x="40" y="60" xlink:href="#p" />
<use x="50" y="60" xlink:href="#p" />
<use x="60" y="60" xlink:href="#p" />
<use x="80" y="60" xlink:href="#p" />
<use x="100" y="60" xlink:href="#p" />
<use x="120" y="60" xlink:href="#p" />
<use x="180" y="60" xlink:href="#p" />
<use x="190" y="60" xlink:href="#p" />
<use x="200" y="60" xlink:href="#p" />
<use x="210" y="60" xlink:href="#p" />
<use x="220" y="60" xlink:href="#p" />
<use x="240" y="60" xlink:href="#p" />
<use x="260" y="60" xlink:href="#p" />
<use x="270" y="60" xlink:href="#p" />
<use x="280" y="60" xlink:href="#p" />
<use x="300" y="60" xlink:href="#p" />
<use x="20" y="70" xlink:href="#p" />
<use x="80" y="70" xlink:href="#p" />
<use x="100" y="70" xlink:href="#p" />
<use x="110" y="70" xlink:href="#p" />
<use x="130" y="70" xlink:href="#p" />
<use x="140" y="70" xlink:href="#p" />
<use x="170" y="70" xlink:href="#p" />
<use x="180" y="70" xlink:href="#p" />
<use x="220" y="70" xlink:href="#p" />
<use x="240" y="70" xlink:href="#p" />
<use x="300" y="70" xlink:href="#p" />
<use x="20" y="80" xlink:href="#p" />
<use x="30" y="80" xlink:href="#p" />
<use x="40" y="80" xlink:href="#p" />
<use x="50" y="80" xlink:href="#p" />
<use x="60" y="80" xlink:href="#p" />
<use x="70" y="80" xlink:href="#p" />
<use x="80" y="80" xlink:href="#p" />
<use x="100" y="80" xlink:href="#p" />
<use x="120" y="80" xlink:href="#p" />
<use x="140" y="80" xlink:href="#p" />
<use x="160" y="80" xlink:href="#p" />
<use x="180" y="80" xlink:href="#p" />
<use x="200" y="80" xlink:href="#p" />
<use x="220" y="80" xlink:href="#p" />
<use x="240" y="80" xlink:href="#p" />
<use x="250" y="80" xlink:href="#p" />
<use x="260" y="80" xlink:href="#p" />
<use x="270" y="80" xlink:href="#p" />
<use x="280" y="80" xlink:href="#p" />
<use x="290" y="80" xlink:href="#p" />
<use x="300" y="80" xlink:href="#p" />
<use x="100" y="90" xlink:href="#p" />
<use x="120" y="90" xlink:href="#p" />
<use x="130" y="90" xlink:href="#p" />
<use x="160" y="90" xlink:href="#p" />
<use x="180" y="90" xlink:href="#p" />
<use x="20" y="100" xlink:href="#p" />
<use x="40" y="100" xlink:href="#p" />
<use x="50" y="100" xlink:href="#p" />
<use x="60" y="100" xlink:href="#p" />
<use x="70" y="100" xlink:href="#p" />
<use x="80" y="100" xlink:href="#p" />
<use x="110" y="100" xlink:href="#p" />
<use x="190" y="100" xlink:href="#p" />
<use x="210" y="100" xlink:href="#p" />
<use x="240" y="100" xlink:href="#p" />
<use x="250" y="100" xlink:href="#p" />
<use x="260" y="100" xlink:href="#p" />
<use x="270" y="100" xlink:href="#p" />
<use x="280" y="100" xlink:href="#p" />
<use x="20" y="110" xlink:href="#p" />
<use x="30" y="110" xlink:href="#p" />
<use x="40" y="110" xlink:href="#p" />
<use x="70" y="110" xlink:href="#p" />
<use x="120" y="110" xlink:href="#p" />
<use x="130" y="110" xlink:href="#p" />
<use x="150" y="110" xlink:href="#p" />
<use x="160" y="110" xlink:href="#p" />
<use x="180" y="110" xlink:href="#p" />
<use x="210" y="110" xlink:href="#p" />
<use x="220" y="110" xlink:href="#p" />
<use x="230" y="110" xlink:href="#p" />
<use x="240" y="110" xlink:href="#p" />
<use x="250" y="110" xlink:href="#p" />
<use x="260" y="110" xlink:href="#p" />
<use x="300" y="110" xlink:href="#p" />
<use x="20" y="120" xlink:href="#p" />
<use x="30" y="120" xlink:href="#p" />
<use x="50" y="120" xlink:href="#p" />
<use x="60" y="120" xlink:href="#p" />
<use x="80" y="120" xlink:href="#p" />
<use x="110" y="120" xlink:href="#p" />
<use x="120" y="120" xlink:href="#p" />
<use x="130" y="120" xlink:href="#p" />
<use x="150" y="120" xlink:href="#p" />
<use x="160" y="120" xlink:href="#p" />
<use x="170" y="120" xlink:href="#p" />
<use x="180" y="120" xlink:href="#p" />
<use x="250" y="120" xlink:href="#p" />
<use x="20" y="130" xlink:href="#p" />
<use x="30" y="130" xlink:href="#p" />
<use x="40" y="130" xlink:href="#p" />
<use x="90" y="130" xlink:href="#p" />
<use x="100" y="130" xlink:href="#p" />
<use x="110" y="130" xlink:href="#p" />
<use x="130" y="130" xlink:href="#p" />
<use x="140" y="130" xlink:href="#p" />
<use x="150" y="130" xlink:href="#p" />
<use x="200" y="130" xlink:href="#p" />
<use x="220" y="130" xlink:href="#p" />
<use x="250" y="130" xlink:href="#p" />
<use x="260" y="130" xlink:href="#p" />
<use x="290" y="130" xlink:href="#p" />
<use x="40" y="140" xlink:href="#p" />
<use x="80" y="140" xlink:href="#p" />
<use x="100" y="140" xlink:href="#p" />
<use x="110" y="140" xlink:href="#p" />
<use x="140" y="140" xlink:href="#p" />
<use x="160" y="140" xlink:href="#p" />
<use x="170" y="140" xlink:href="#p" />
<use x="190" y="140" xlink:href="#p" />
<use x="220" y="140" xlink:href="#p" />
<use x="250" y="140" xlink:href="#p" />
<use x="270" y="140" xlink:href="#p" />
<use x="280" y="140" xlink:href="#p" />
<use x="20" y="150" xlink:href="#p" />
<use x="60" y="150" xlink:href="#p" />
<use x="90" y="150" xlink:href="#p" />
<use x="100" y="150" xlink:href="#p" />
<use x="110" y="150" xlink:href="#p" />
<use x="120" y="150" xlink:href="#p" />
<use x="140" y="150" xlink:href="#p" />
<use x="180" y="150" xlink:href="#p" />
<use x="190" y="150" xlink:href="#p" />
<use x="200" y="150" xlink:href="#p" />
<use x="210" y="150" xlink:href="#p" />
<use x="220" y="150" xlink:href="#p" />
<use x="230" y="150" xlink:href="#p" />
<use x="240" y="150" xlink:href="#p" />
<use x="250" y="150" xlink:href="#p" />
<use x="260" y="150" xlink:href="#p" />
<use x="280" y="150" xlink:href="#p" />
<use x="300" y="150" xlink:href="#p" />
<use x="20" y="160" xlink:href="#p" />
<use x="30" y="160" xlink:href="#p" />
<use x="50" y="160" xlink:href="#p" />
<use x="70" y="160" xlink:href="#p" />
<use x="80" y="160" xlink:href="#p" />
<use x="90" y="160" xlink:href="#p" />
<use x="100" y="160" xlink:href="#p" />
<use x="130" y="160" xlink:href="#p" />
<use x="170" y="160" xlink:href="#p" />
<use x="190" y="160" xlink:href="#p" />
<use x="220" y="160" xlink:href="#p" />
<use x="230" y="160" xlink:href="#p" />
<use x="280" y="160" xlink:href="#p" />
<use x="20" y="170" xlink:href="#p" />
<use x="70" y="170" xlink:href="#p" />
<use x="90" y="170" xlink:href="#p" />
<use x="140" y="170" xlink:href="#p" />
<use x="160" y="170" xlink:href="#p" />
<use x="180" y="170" xlink:href="#p" />
<use x="220" y="170" xlink:href="#p" />
<use x="230" y="170" xlink:href="#p" />
<use x="240" y="170" xlink:href="#p" />
<use x="250" y="170" xlink:href="#p" />
<use x="290" y="170" xlink:href="#p" />
<use x="30" y="180" xlink:href="#p" />
<use x="50" y="180" xlink:href="#p" />
<use x="60" y="180" xlink:href="#p" />
<use x="80" y="180" xlink:href="#p" />
<use x="90" y="180" xlink:href="#p" />
<use x="110" y="180" xlink:href="#p" />
<use x="120" y="180" xlink:href="#p" />
<use x="130" y="180" xlink:href="#p" />
<use x="140" y="180" xlink:href="#p" />
<use x="190" y="180" xlink:href="#p" />
<use x="280" y="180" xlink:href="#p" />
<use x="20" y="190" xlink:href="#p" />
<use x="30" y="190" xlink:href="#p" />
<use x="40" y="190" xlink:href="#p" />
<use x="50" y="190" xlink:href="#p" />
<use x="60" y="190" xlink:href="#p" />
<use x="90" y="190" xlink:href="#p" />
<use x="100" y="190" xlink:href="#p" />
<use x="110" y="190" xlink:href="#p" />
<use x="120" y="190" xlink:href="#p" />
<use x="150" y="190" xlink:href="#p" />
<use x="160" y="190" xlink:href="#p" />
<use x="210" y="190" xlink:href="#p" />
<use x="220" y="190" xlink:href="#p" />
<use x="230" y="190" xlink:href="#p" />
<use x="240" y="190" xlink:href="#p" />
<use x="260" y="190" xlink:href="#p" />
<use x="270" y="190" xlink:href="#p" />
<use x="280" y="190" xlink:href="#p" />
<use x="300" y="190" xlink:href="#p" />
<use x="20" y="200" xlink:href="#p" />
<use x="40" y="200" xlink:href="#p" />
<use x="50" y="200" xlink:href="#p" />
<use x="60" y="200" xlink:href="#p" />
<use x="80" y="200" xlink:href="#p" />
<use x="100" y="200" xlink:href="#p" />
<use x="110" y="200" xlink:href="#p" />
<use x="130" y="200" xlink:href="#p" />
<use x="140" y="200" xlink:href="#p" />
<use x="150" y="200" xlink:href="#p" />
<use x="160" y="200" xlink:href="#p" />
<use x="170" y="200" xlink:href="#p" />
<use x="180" y="200" xlink:href="#p" />
<use x="220" y="200" xlink:href="#p" />
<use x="240" y="200" xlink:href="#p" />
<use x="250" y="200" xlink:href="#p" />
<use x="270" y="200" xlink:href="#p" />
<use x="280" y="200" xlink:href="#p" />
<use x="20" y="210" xlink:href="#p" />
<use x="40" y="210" xlink:href="#p" />
<use x="110" y="210" xlink:href="#p" />
<use x="120" y="210" xlink:href="#p" />
<use x="130" y="210" xlink:href="#p" />
<use x="150" y="210" xlink:href="#p" />
<use x="170" y="210" xlink:href="#p" />
<use x="180" y="210" xlink:href="#p" />
<use x="210" y="210" xlink:href="#p" />
<use x="250" y="210" xlink:href="#p" />
<use x="260" y="210" xlink:href="#p" />
<use x="290" y="210" xlink:href="#p" />
<use x="20" y="220" xlink:href="#p" />
<use x="50" y="220" xlink:href="#p" />
<use x="80" y="220" xlink:href="#p" />
<use x="90" y="220" xlink:href="#p" />
<use x="100" y="220" xlink:href="#p" />
<use x="110" y="220" xlink:href="#p" />
<use x="130" y="220" xlink:href="#p" />
<use x="140" y="220" xlink:href="#p" />
<use x="160" y="220" xlink:href="#p" />
<use x="170" y="220" xlink:href="#p" />
<use x="190" y="220" xlink:href="#p" />
<use x="210" y="220" xlink:href="#p" />
<use x="220" y="220" xlink:href="#p" />
<use x="230" y="220" xlink:href="#p" />
<use x="240" y="220" xlink:href="#p" />
<use x="250" y="220" xlink:href="#p" />
<use x="260" y="220" xlink:href="#p" />
<use x="280" y="220" xlink:href="#p" />
<use x="290" y="220" xlink:href="#p" />
<use x="300" y="220" xlink:href="#p" />
<use x="100" y="230" xlink:href="#p" />
<use x="140" y="230" xlink:href="#p" />
<use x="180" y="230" xlink:href="#p" />
<use x="220" y="230" xlink:href="#p" />
<use x="260" y="230" xlink:href="#p" />
<use x="270" y="230" xlink:href="#p" />
<use x="280" y="230" xlink:href="#p" />
<use x="290" y="230" xlink:href="#p" />
<use x="300" y="230" xlink:href="#p" />
<use x="20" y="240" xlink:href="#p" />
<use x="30" y="240" xlink:href="#p" />
<use x="40" y="240" xlink:href="#p" />
<use x="50" y="240" xlink:href="#p" />
<use x="60" y="240" xlink:href="#p" />
<use x="70" y="240" xlink:href="#p" />
<use x="80" y="240" xlink:href="#p" />
<use x="170" y="240" xlink:href="#p" />
<use x="180" y="240" xlink:href="#p" />
<use x="190" y="240" xlink:href="#p" />
<use x="200" y="240" xlink:href="#p" />
<use x="210" y="240" xlink:href="#p" />
<use x="220" y="240" xlink:href="#p" />
<use x="240" y="240" xlink:href="#p" />
<use x="260" y="240" xlink:href="#p" />
<use x="270" y="240" xlink:href="#p" />
<use x="280" y="240" xlink:href="#p" />
<use x="20" y="250" xlink:href="#p" />
<use x="80" y="250" xlink:href="#p" />
<use x="100" y="250" xlink:href="#p" />
<use x="110" y="250" xlink:href="#p" />
<use x="160" y="250" xlink:href="#p" />
<use x="170" y="250" xlink:href="#p" />
<use x="180" y="250" xlink:href="#p" />
<use x="200" y="250" xlink:href="#p" />
<use x="210" y="250" xlink:href="#p" />
<use x="220" y="250" xlink:href="#p" />
<use x="260" y="250" xlink:href="#p" />
<use x="270" y="250" xlink:href="#p" />
<use x="290" y="250" xlink:href="#p" />
<use x="20" y="260" xlink:href="#p" />
<use x="40" y="260" xlink:href="#p" />
<use x="50" y="260" xlink:href="#p" />
<use x="60" y="260" xlink:href="#p" />
<use x="80" y="260" xlink:href="#p" />
<use x="100" y="260" xlink:href="#p" />
<use x="140" y="260" xlink:href="#p" />
<use x="190" y="260" xlink:href="#p" />
<use x="220" y="260" xlink:href="#p" />
<use x="230" y="260" xlink:href="#p" />
<use x="240" y="260" xlink:href="#p" />
<use x="250" y="260" xlink:href="#p" />
<use x="260" y="260" xlink:href="#p" />
<use x="270" y="260" xlink:href="#p" />
<use x="280" y="260" xlink:href="#p" />
<use x="20" y="270" xlink:href="#p" />
<use x="40" y="270" xlink:href="#p" />
<use x="50" y="270" xlink:href="#p" />
<use x="60" y="270" xlink:href="#p" />
<use x="80" y="270" xlink:href="#p" />
<use x="100" y="270" xlink:href="#p" />
<use x="120" y="270" xlink:href="#p" />
<use x="140" y="270" xlink:href="#p" />
<use x="150" y="270" xlink:href="#p" />
<use x="160" y="270" xlink:href="#p" />
<use x="180" y="270" xlink:href="#p" />
<use x="190" y="270" xlink:href="#p" />
<use x="200" y="270" xlink:href="#p" />
<use x="220" y="270" xlink:href="#p" />
<use x="250" y="270" xlink:href="#p" />
<use x="270" y="270" xlink:href="#p" />
<use x="290" y="270" xlink:href="#p" />
<use x="300" y="270" xlink:href="#p" />
<use x="20" y="280" xlink:href="#p" />
<use x="40" y="280" xlink:href="#p" />
<use x="50" y="280" xlink:href="#p" />
<use x="60" y="280" xlink:href="#p" />
<use x="80" y="280" xlink:href="#p" />
<use x="100" y="280" xlink:href="#p" />
<use x="130" y="280" xlink:href="#p" />
<use x="140" y="280" xlink:href="#p" />
<use x="160" y="280" xlink:href="#p" />
<use x="170" y="280" xlink:href="#p" />
<use x="180" y="280" xlink:href="#p" />
<use x="200" y="280" xlink:href="#p" />
<use x="230" y="280" xlink:href="#p" />
<use x="240" y="280" xlink:href="#p" />
<use x="250" y="280" xlink:href="#p" />
<use x="260" y="280" xlink:href="#p" />
<use x="270" y="280" xlink:href="#p" />
<use x="280" y="280" xlink:href="#p" />
<use x="290" y="280" xlink:href="#p" />
<use x="20" y="290" xlink:href="#p" />
<use x="80" y="290" xlink:href="#p" />
<use x="160" y="290" xlink:href="#p" />
<use x="210" y="290" xlink:href="#p" />
<use x="220" y="290" xlink:href="#p" />
<use x="230" y="290" xlink:href="#p" />
<use x="250" y="290" xlink:href="#p" />
<use x="270" y="290" xlink:href="#p" />
<use x="290" y="290" xlink:href="#p" />
<use x="20" y="300" xlink:href="#p" />
<use x="30" y="300" xlink:href="#p" />
<use x="40" y="300" xlink:href="#p" />
<use x="50" y="300" xlink:href="#p" />
<use x="60" y="300" xlink:href="#p" />
<use x="70" y="300" xlink:href="#p" />
<use x="80" y="300" xlink:href="#p" />
<use x="100" y="300" xlink:href="#p" />
<use x="110" y="300" xlink:href="#p" />
<use x="120" y="300" xlink:href="#p" />
<use x="150" y="300" xlink:href="#p" />
<use x="160" y="300" xlink:href="#p" />
<use x="170" y="300" xlink:href="#p" />
<use x="180" y="300" xlink:href="#p" />
<use x="190" y="300" xlink:href="#p" />
<use x="210" y="300" xlink:href="#p" />
<use x="250" y="300" xlink:href="#p" />
<use x="260" y="300" xlink:href="#p" />
<use x="270" y="300" xlink:href="#p" />
<use x="280" y="300" xlink:href="#p" />
</g>
</svg>