<svg xmlns="http://www.w3.org/2000/svg" xmlns:xlink="http://www.w3.org/1999/xlink" width="470" height="235" viewBox="3 62 470 235">
  <defs>
    <path id="b" d="M0,238 L473,238"/>
    <filter id="a" width="200%" height="200%" x="-50%" y="-50%" filterUnits="objectBoundingBox">
      <feOffset dy="-1" in="SourceAlpha" result="shadowOffsetInner1"/>
      <feComposite in="shadowOffsetInner1" in2="SourceAlpha" operator="arithmetic" k2="-1" k3="1" result="shadowInnerInner1"/>
      <feColorMatrix values="0 0 0 0 0 0 0 0 0 0 0 0 0 0 0 0 0 0 0.2 0" in="shadowInnerInner1"/>
    </filter>
  </defs>
  <g fill="none" fill-rule="evenodd">
    <rect width="473" height="297" fill="#93B1E6"/>
    <g transform="translate(0 51)">
      <path fill="#FFFFFF" d="M0,246 L473,246 L473,115 C473,115 461.826191,125.915946 453,137 C440.326191,152.915946 454.819374,155.435924 430,169 C411.819374,178.935924 386.56496,174.21752 367,184 C342.56496,196.21752 362.564018,199.661178 342,213 C325.564018,223.661178 324.799009,228.438511 293,232 C262.299009,235.438511 228.069956,236.57977 217,227 C176.069956,191.57977 222.553485,182.599717 189,142 C172.553485,122.099717 157.916005,109.386152 117,106 C85.4160051,103.386152 66.5883549,115.784915 44,130 C8.58835493,152.284915 1,179 1,179 L0,246 Z" opacity=".05"/>
      <polygon fill="#4778DA" points="372 230 393 178 417 230"/>
      <polygon fill="#3367D6" points="408 230 444 134 473 213 473 230"/>
      <path fill="#2E61D2" d="M297,230 C314.139167,223.450028 322.918738,213.551253 339.487192,213.551253 C356.055645,213.551253 376,230 376,230 C376,230 297,230 297,230 Z"/>
      <path fill="#FFFFFF" d="M250.189392,144.969695 C241.487256,146.134049 238.748671,156.496098 240.50357,157.013177 C244.344408,158.144877 256.761388,158.020494 260.738834,157.559289 C263.401828,157.250502 265.543616,154.814929 268.215492,154.595912 C274.314972,154.09593 280.526311,156.491606 286.555752,155.443045 C298.125462,153.430991 288.334513,139.711594 282.182074,138.089519 C267.87677,134.317961 280.800133,141.255272 267.38581,144.969695 C264.818556,145.680566 260.750887,141.764885 258.105535,142.078324" opacity=".12"/>
      <path fill="#FFFFFF" d="M96,59.8089124 L169.751812,60.9970842 C169.751812,60.9970842 163.047253,45.2580782 149.031547,39.7001255 C144.270354,37.8120663 138.51968,47.1930652 132.198013,46.1050604 C119.968519,44.0002758 115.717334,31.8772159 109.252374,34.3247221 C97.6183278,38.7291419 96,59.8089124 96,59.8089124 Z" opacity=".07"/>
      <path fill="#FFFFFF" d="M418.4343,112.366832 L472.723168,112.263296 L472.296228,97.4157843 C472.296228,97.4157843 465.475369,92.3204635 458.239777,92.0493681 C451.844695,91.809764 450.597437,97.4225336 445.03488,96.3943853 C435.271799,94.5898383 437.614342,88.4112793 427.588501,86.3839775 C422.069418,85.2679764 418.23806,86.7785028 413.945031,90.1077794 C402.229189,99.1935042 418.4343,112.366832 418.4343,112.366832 Z" opacity=".08"/>
      <rect width="37" height="99" x="183" y="131" fill="#4E81DF"/>
      <rect width="42" height="88" x="114" y="142" fill="#366AD7"/>
      <rect width="57" height="30" x="144" y="200" fill="#4775DA"/>
      <rect width="46" height="126" x="64" y="63" fill="#3265D5"/>
      <rect width="34" height="16" x="70" y="47" fill="#3164D4"/>
      <rect width="4" height="47" x="85" fill="#3165D5"/>
      <rect width="45" height="138" x="14" y="92" fill="#477ADC"/>
      <rect width="92" height="41" x="36" y="189" fill="#5586E0"/>
      <path fill="#4573D8" d="M5,19.0355619 C2.94700101,18.9337428 0.880767687,17.8616695 0.219041369,15.9566274 C-1.12721331,12.0808986 4.172208,0 4.172208,0 C4.172208,0 10.7938271,11.9090952 9.75933098,16.0847527 C9.31648181,17.8722764 7.75119293,18.8161508 6,19.0070643 L6,24 L5,24 L5,19.0355619 Z" transform="translate(170 176)"/>
      <path fill="#4573D8" d="M5,19.0355619 C2.94700101,18.9337428 0.880767687,17.8616695 0.219041369,15.9566274 C-1.12721331,12.0808986 4.172208,0 4.172208,0 C4.172208,0 10.7938271,11.9090952 9.75933098,16.0847527 C9.31648181,17.8722764 7.75119293,18.8161508 6,19.0070643 L6,24 L5,24 L5,19.0355619 Z" transform="translate(191 176)"/>
      <rect width="473" height="16" y="230" fill="#3C6CD7"/>
      <g opacity=".4">
        <use fill="black" filter="url(#a)" xlink:href="#b"/>
        <use stroke="#FFFFFF" stroke-linecap="square" stroke-dasharray="4" xlink:href="#b"/>
      </g>
    </g>
  </g>
</svg>
